<svg width="26" height="21" viewBox="0 0 26 21" fill="none" xmlns="http://www.w3.org/2000/svg">
<g clip-path="url(#clip0_483_43343)">
<path d="M16.7294 18.6282C17.0793 18.6456 17.428 18.6655 17.7779 18.678C18.2212 18.6954 18.4814 18.9332 18.5038 19.3628C18.5287 19.826 18.261 20.1324 17.8065 20.1411C16.9212 20.1585 16.0246 20.1921 15.1505 20.0801C13.7334 19.8995 12.6464 18.6792 12.6264 17.2148C12.5841 14.2014 12.5779 11.1868 12.6289 8.17336C12.6551 6.60066 13.8555 5.37413 15.4145 5.30191C17.042 5.22719 18.6757 5.23716 20.3044 5.28945C21.4998 5.32806 22.3901 6.24453 22.4748 7.35899C22.5109 7.83342 22.3503 8.19951 21.8559 8.27547C21.3716 8.34894 21.0627 8.0999 21.0092 7.59808C20.9432 6.9929 20.5734 6.72145 20.0093 6.71896C18.7927 6.71398 17.5749 6.73763 16.3583 6.75009C15.0148 6.62432 14.1194 7.17719 14.107 8.25057C14.0734 11.2216 14.0833 14.194 14.1033 17.1663C14.1082 17.9209 14.6375 18.5061 15.3846 18.6157C15.8254 18.6805 16.2824 18.6282 16.7319 18.6282H16.7294Z" fill="#FCFCFC"/>
<path d="M19.2684 14.6996C19.2684 13.7495 19.2585 12.8007 19.2709 11.8506C19.2908 10.4024 20.3169 9.37263 21.7738 9.33154C22.2893 9.31784 22.8061 9.32531 23.3216 9.33029C24.8831 9.34648 25.949 10.3526 25.9751 11.9116C26.0075 13.8106 26.0087 15.7095 25.9751 17.6085C25.9477 19.099 24.9005 20.1126 23.4162 20.1562C22.8596 20.1723 22.3005 20.1773 21.7439 20.1549C20.2808 20.0964 19.2834 19.0666 19.2697 17.6097C19.2597 16.6397 19.2684 15.6697 19.2684 14.6996V14.6996ZM22.552 18.637C23.8931 18.8039 24.5992 18.6171 24.5232 16.9062C24.4597 15.4879 24.4634 14.0633 24.522 12.645C24.6017 10.7237 23.8346 10.7449 22.552 10.8108C22.511 10.8133 22.4711 10.8245 22.43 10.832C21.262 10.7312 20.7365 11.0387 20.7266 11.8967C20.7054 13.7956 20.7116 15.6946 20.7241 17.5935C20.7291 18.246 21.1026 18.6245 21.7564 18.6756C22.0191 18.6955 22.2868 18.6519 22.552 18.6382V18.637Z" fill="#FCFCFC"/>
<path d="M18.9659 3.05697C18.9198 1.39461 17.5351 0.087139 15.6685 0.0236333C14.5541 -0.0149683 13.4371 0.0136716 12.3214 0.0136716C9.46988 0.0136716 6.61835 -0.0236847 3.76806 0.0273689C1.49929 0.0684608 0.0286949 1.60132 0.0149976 3.85515C-0.00243536 6.66434 -0.00617099 9.47478 0.0149976 12.284C0.0336758 14.544 1.60762 16.0669 3.86892 16.0694C5.54249 16.0694 7.21605 16.0694 8.88961 16.0694C9.50973 16.0694 10.1298 16.0856 10.7487 16.0632C11.1833 16.047 11.4398 15.7917 11.4435 15.3497C11.4473 14.9151 11.2057 14.6573 10.7736 14.6038C10.5694 14.5789 10.3615 14.5901 10.1547 14.5889C8.09019 14.5727 6.02563 14.5577 3.96107 14.5415C2.65484 14.7009 1.53291 13.8554 1.51174 12.5417C1.46069 9.54949 1.46442 6.55476 1.50676 3.56252C1.52295 2.35218 2.50666 1.51789 3.70954 1.53407C7.75772 1.52536 11.8047 1.49796 15.8528 1.52038C16.778 1.52536 17.372 2.18532 17.4828 3.15285C17.5401 3.65342 17.7406 4.00831 18.2822 3.97095C18.8189 3.93484 18.9783 3.56875 18.9646 3.05821L18.9659 3.05697Z" fill="#FCFCFC"/>
<path d="M11.0039 18.6779C9.91434 18.6742 8.82478 18.6779 7.66051 18.6779C7.72028 18.3529 7.82736 18.1163 7.78378 17.9146C7.73148 17.678 7.59451 17.358 7.40773 17.2783C7.18857 17.1849 6.82621 17.2322 6.61328 17.363C6.23225 17.5959 6.00064 18.7838 6.1675 19.2669C6.36424 19.8372 6.84738 20.1548 7.57832 20.1597C8.71395 20.1685 9.85083 20.166 10.9865 20.1597C11.6352 20.156 11.9951 19.8845 12.0026 19.4151C12.01 18.9245 11.6838 18.6804 11.0039 18.6792V18.6779Z" fill="#FCFCFC"/>
<path d="M11.4423 11.6678C11.4136 11.2768 11.1883 11.0165 10.7624 11.0115C10.5158 11.0078 10.2693 11.0265 10.0227 11.0352L8.66048 11.0315C8.47619 11.0228 8.25081 10.9418 8.11881 11.0203C7.86604 11.1697 7.4987 11.4038 7.48998 11.6155C7.47878 11.8795 7.73155 12.2182 7.96441 12.4087C8.10885 12.527 8.43012 12.4286 8.67044 12.4286C9.11996 12.4261 9.56949 12.4249 10.019 12.4224C10.2842 12.4286 10.552 12.4597 10.8135 12.4336C11.2605 12.3888 11.4734 12.0924 11.4435 11.6678H11.4423Z" fill="#FCFCFC"/>
<path d="M18.0269 15.2376C17.8763 15.1218 17.565 15.2127 17.3259 15.2115C17.1628 15.2052 16.9984 15.1803 16.8378 15.1978C16.397 15.2438 16.1815 15.5103 16.2015 15.9436C16.2201 16.3434 16.4356 16.5912 16.8477 16.6248C17.0096 16.6372 17.174 16.6136 17.3371 16.6073C17.5189 16.6148 17.7505 16.6958 17.8738 16.6136C18.1191 16.4517 18.4491 16.2163 18.4765 15.9798C18.5026 15.7444 18.2498 15.4094 18.0269 15.2376V15.2376Z" fill="#FCFCFC"/>
<path d="M22.1809 17.4577C21.7414 17.0169 21.7277 16.5736 22.1685 16.1241C22.6205 15.951 23.0663 15.9685 23.2692 16.4479C23.3651 16.6733 23.3078 17.1365 23.1472 17.256C22.9056 17.4328 22.5109 17.4005 22.1809 17.4577V17.4577Z" fill="#FCFCFC"/>
</g>
<defs>
<clipPath id="clip0_483_43343">
<rect width="26" height="20.1699" fill="white"/>
</clipPath>
</defs>
</svg>
